<svg xmlns="http://www.w3.org/2000/svg" xmlns:xlink="http://www.w3.org/1999/xlink" width="104" height="127" viewBox="0 0 104 127">
    <defs>
        <path id="a" d="M0 0h131v137H0z"/>
    </defs>
    <g fill="none" fill-rule="evenodd" transform="translate(-27)">
        <mask id="b" fill="#fff">
            <use xlink:href="#a"/>
        </mask>
        <g mask="url(#b)" opacity=".029">
            <path d="M27 0h127v127H27z"/>
            <g fill="#000">
                <path d="M122.25 55.797V22.162L100.08 0H27v127h95.25v-.234c17.855-1.985 31.742-17.102 31.75-35.485-.008-18.39-13.895-33.512-31.75-35.484zM98.43 9.577l14.24 14.236H98.43V9.576zM34.937 119.063V7.93H90.5v23.816h23.813v24.05A35.546 35.546 0 0 0 95.85 63.5H42.875v7.938h45.708c-1.635 2.444-2.949 5.115-3.945 7.937H42.875v7.938h39.922a35.404 35.404 0 0 0-.234 3.968c0 11.228 5.19 21.237 13.29 27.781H34.939zm83.344-.465c-15.085-.036-27.289-12.24-27.325-27.317.036-15.085 12.24-27.289 27.325-27.325 15.078.036 27.281 12.24 27.317 27.325-.036 15.078-12.24 27.281-27.317 27.317zm-11.906-70.973h-63.5v7.938h63.5v-7.938z"/>
                <path d="M98.438 91.281l7.937-7.937 7.938 7.937 15.874-15.875 7.938 7.938-23.813 23.812z"/>
            </g>
        </g>
    </g>
</svg>
