<svg xmlns="http://www.w3.org/2000/svg" xmlns:xlink="http://www.w3.org/1999/xlink" width="141" height="134" viewBox="0 0 141 134">
    <defs>
        <path id="a" d="M0 0h158v137H0z"/>
    </defs>
    <g fill="none" fill-rule="evenodd" transform="translate(-17)">
        <mask id="b" fill="#fff">
            <use xlink:href="#a"/>
        </mask>
        <g fill="#333" mask="url(#b)" opacity=".033">
            <path stroke="#333" stroke-width="3" d="M138.954 7.423h-36.405C102.331.636 96.742-4.813 89.873-4.813h-61.6c-.281 0-.593 0-.906.031A9.222 9.222 0 0 0 19 4.434v29.798a2.17 2.17 0 0 0 2.186 2.18h17.89v46.206c0 5.853 4.776 10.617 10.646 10.617h42.649v27.867a2.17 2.17 0 0 0 2.186 2.18h14.736c3.497 5.293 9.492 8.531 15.892 8.531 5.433 0 10.647-2.335 14.237-6.414a21.867 21.867 0 0 0 1.655-2.148h13.737a2.17 2.17 0 0 0 2.186-2.18v-95.62c0-9.932-8.086-18.028-18.046-18.028zM23.37 32.021V4.434a4.85 4.85 0 0 1 3.56-4.701c.25.218.499.436.717.654.032.03.094.093.125.124l.562.56.25.25c.156.155.312.311.437.467l.281.28c.125.156.25.28.406.436.094.093.187.218.281.311.125.125.25.28.375.405.093.125.187.218.28.342.126.125.22.28.344.405.094.125.187.25.281.343.094.124.219.28.312.405l.281.373c.094.125.219.28.313.405l.28.374c.094.124.188.28.282.404.093.125.187.25.25.374.093.125.187.28.28.405.094.124.156.249.25.405.094.155.187.28.25.435.094.125.156.28.25.405.093.156.156.28.25.436.093.125.156.28.218.405.094.156.156.28.25.436.062.124.156.28.218.405.063.155.156.28.219.435.062.125.156.28.218.436.063.156.157.28.219.436.062.156.125.28.187.436.063.156.125.312.188.436.062.156.125.28.187.436l.187.467c.063.156.125.28.188.436l.187.467c.062.156.125.28.156.436.062.156.125.311.156.467.063.156.094.28.156.436.063.156.094.311.156.467.063.156.094.311.125.436.063.156.094.311.156.467.032.156.094.311.125.436.031.155.094.311.125.498.031.156.094.311.125.436.031.156.094.342.125.498.031.156.062.311.094.436.03.156.062.342.093.498.031.156.063.312.094.436.031.156.062.343.094.498.03.156.062.312.062.436.031.187.062.343.094.53.03.155.03.28.062.435.031.187.031.343.063.53.03.155.03.28.062.436.031.186.031.373.062.56 0 .125.032.28.032.405.03.187.03.373.03.591 0 .125.032.25.032.405 0 .218.031.436.031.654V31.958H23.371v.063zm20.076 50.597V25.389c0-.249-.032-.467-.032-.716 0-.125 0-.25-.03-.374 0-.218-.032-.436-.032-.654 0-.124-.031-.249-.031-.404-.032-.218-.032-.436-.063-.685 0-.125-.03-.25-.03-.374-.032-.249-.063-.53-.095-.778 0-.094-.03-.156-.03-.25-.063-.342-.094-.684-.157-1.027 0-.093-.031-.156-.031-.249-.031-.25-.094-.53-.125-.778-.031-.125-.062-.25-.062-.343-.032-.218-.094-.436-.125-.654l-.094-.373c-.062-.218-.094-.436-.156-.654l-.094-.374c-.062-.218-.125-.467-.187-.685-.031-.093-.063-.218-.094-.311-.187-.654-.374-1.308-.593-1.962a3.912 3.912 0 0 1-.094-.311c-.062-.218-.156-.436-.25-.654-.03-.125-.093-.25-.124-.343-.063-.218-.156-.404-.25-.622-.063-.125-.094-.25-.156-.343-.094-.218-.188-.405-.25-.623-.031-.093-.094-.218-.125-.311-.094-.249-.218-.467-.312-.716-.031-.062-.063-.156-.094-.218-.156-.311-.28-.623-.437-.934a1.516 1.516 0 0 1-.094-.218c-.124-.25-.25-.467-.374-.685a1.453 1.453 0 0 1-.156-.311c-.094-.187-.219-.405-.313-.592-.062-.125-.124-.218-.187-.343-.094-.186-.218-.373-.343-.56-.063-.093-.125-.218-.188-.311-.125-.187-.25-.405-.374-.592a684285.398 684285.398 0 0 1-.75-1.12c-.187-.281-.374-.561-.593-.842l-.187-.28c-.125-.187-.281-.373-.406-.56-.094-.094-.156-.218-.25-.312-.125-.155-.25-.342-.406-.498-.093-.093-.156-.218-.25-.311-.124-.156-.28-.343-.405-.498-.094-.094-.156-.187-.25-.312-.156-.186-.312-.373-.5-.56-.062-.062-.125-.156-.187-.218l-.031-.031h56.823a8.296 8.296 0 0 1 8.305 7.877H79.414c-8.867 0-16.08 7.193-16.08 16.035V65.4c0 4.546-.936 8.968-2.778 13.109-.218.467-.437.934-.656 1.37-.03.03-.03.062-.062.093-.219.436-.437.84-.687 1.277-.031.062-.062.093-.094.155-.218.405-.468.81-.718 1.184-.03.062-.062.124-.125.186-.25.374-.5.779-.78 1.152-.031.063-.094.125-.125.187-.28.374-.53.748-.812 1.09-.03.062-.093.125-.125.156-.28.373-.593.716-.874 1.058-.031.063-.093.094-.125.156-.312.374-.624.716-.968 1.059l-.093.093a17 17 0 0 1-1.062 1.059h-3.528c-3.465.062-6.275-2.74-6.275-6.165zm48.924 6.227H59.245a.547.547 0 0 1 .125-.156c.187-.218.374-.436.53-.685.063-.062.125-.155.188-.218.218-.311.468-.591.687-.903.03-.062.093-.124.125-.186.187-.25.343-.499.53-.748.063-.093.125-.186.188-.311.156-.218.312-.467.468-.716l.187-.28c.188-.312.406-.654.594-.966a.236.236 0 0 0 .062-.124c.156-.28.312-.56.468-.872.063-.093.125-.218.156-.311.125-.25.25-.499.375-.716.062-.094.094-.218.156-.312l.468-1.027a36.4 36.4 0 0 0 3.154-14.884V23.46c0-6.446 5.245-11.677 11.708-11.677h1.655l.031.032c.125.124.281.249.406.342.094.094.187.156.28.25.126.124.25.248.376.342.093.093.187.155.28.249l.375.373.281.28c.125.125.25.25.344.374.093.094.187.187.25.28.124.125.218.25.343.374.094.094.187.187.25.28.125.125.218.25.312.374.093.093.156.187.25.28.093.125.218.25.312.374.093.093.156.187.25.311.093.125.187.25.312.405.093.093.156.218.25.311.093.125.187.25.28.405.063.094.157.218.22.312.093.124.186.28.28.404.063.094.156.218.219.312.093.124.187.28.28.404.063.094.126.218.22.312.093.124.187.28.249.405.062.093.125.218.187.342.094.156.156.28.25.436.063.125.125.218.187.343.094.155.157.28.25.435.063.125.125.218.188.343.062.156.156.28.218.436.063.124.125.218.156.342.063.156.156.312.219.436.062.125.093.218.156.343.062.155.125.311.218.467.063.124.094.218.157.342l.187.467c.031.125.094.218.125.343l.187.467c.031.124.094.218.125.342.062.156.125.312.156.467.031.125.063.218.125.343.062.156.094.311.156.498.031.125.063.218.094.343.062.155.093.342.156.498.031.124.062.218.094.342.03.156.093.343.124.498.032.125.063.218.094.343.031.187.094.342.125.53.031.124.031.217.062.342.032.187.063.342.125.53.031.093.031.217.063.31.03.187.062.374.093.56.032.094.032.219.063.312l.093.56c0 .094.032.188.032.281.03.187.062.405.062.592 0 .093.031.155.031.249.032.218.032.436.063.654v.186c.031.25.031.467.062.716v.032c.031.591.031 1.152.031 1.743v52.465h-.062zm32.814 38.61a14.717 14.717 0 0 1-12.77-7.442 14.39 14.39 0 0 1-1.873-6.695V112.851c0-5.729 3.403-10.96 8.617-13.326a14.845 14.845 0 0 1 6.026-1.277c4.184 0 8.211 1.806 10.99 4.95a14.57 14.57 0 0 1 3.684 9.684c0 .623-.03 1.246-.125 1.868-.187 1.557-.655 3.052-1.342 4.484-.125.28-.281.56-.437.84-.5.904-1.093 1.744-1.78 2.492a14.82 14.82 0 0 1-10.99 4.888zm27.444-8.563h-9.398v-.032c.063-.218.156-.435.219-.653 0-.063.031-.094.031-.156.062-.187.094-.343.156-.53.031-.062.031-.155.063-.217.03-.156.062-.312.093-.467.031-.063.031-.156.063-.218.03-.187.062-.374.093-.56 0-.032 0-.094.032-.125.03-.218.062-.467.093-.685 0-.063 0-.125.031-.187.032-.156.032-.343.063-.498 0-.094 0-.156.031-.25 0-.155.031-.342.031-.498V112.882c0-4.639-1.686-9.092-4.777-12.579a19.066 19.066 0 0 0-14.268-6.414c-2.716 0-5.339.56-7.837 1.681-6.806 3.052-11.208 9.87-11.208 17.312v.654c0 .343.031.685.062 1.028 0 .062 0 .124.031.186.032.343.063.654.125.997 0 .062.032.124.032.187.062.311.124.654.187.965v.062c.062.343.156.654.25.965.03.063.03.125.062.187.094.28.156.56.25.84H96.742V35.198c0-.249-.031-.53-.031-.778v-.25c0-.249-.031-.466-.063-.716 0-.093 0-.155-.03-.249a6.537 6.537 0 0 1-.063-.778c0-.062 0-.125-.031-.156a20.54 20.54 0 0 0-.281-1.93c0-.062-.032-.125-.032-.218-.03-.25-.093-.498-.125-.747-.03-.094-.03-.187-.062-.25a5.41 5.41 0 0 0-.156-.685c-.031-.093-.031-.155-.063-.249-.062-.249-.124-.529-.187-.778 0-.062-.031-.093-.031-.156a31.55 31.55 0 0 0-.53-1.837c-.032-.062-.032-.155-.063-.218-.063-.218-.156-.467-.219-.685-.031-.093-.062-.155-.094-.249a5.604 5.604 0 0 0-.25-.654c-.03-.093-.062-.155-.093-.249a7.594 7.594 0 0 0-.312-.747c0-.031-.031-.062-.031-.125-.125-.311-.25-.591-.375-.903 0-.03-.031-.03-.031-.062-.125-.28-.25-.53-.375-.81-.031-.062-.062-.155-.094-.217-.093-.218-.218-.436-.312-.623-.031-.093-.094-.156-.125-.25-.093-.217-.218-.404-.343-.622-.031-.062-.063-.156-.125-.218-.125-.249-.281-.498-.406-.747 0-.031-.031-.062-.031-.062-.156-.28-.344-.56-.5-.841-.03-.031-.03-.062-.062-.093-.156-.25-.281-.468-.437-.717-.031-.062-.094-.124-.125-.218-.125-.186-.25-.404-.406-.591-.062-.062-.094-.156-.156-.218-.125-.187-.281-.405-.406-.592-.031-.062-.094-.124-.125-.186L89 13.775c-.187-.249-.406-.53-.624-.778l-.094-.094-.53-.622a.826.826 0 0 1-.157-.187c-.094-.094-.187-.187-.25-.312h51.642c7.555 0 13.674 6.134 13.674 13.638v93.472h-.031z"/>
            <path stroke="#333" stroke-width="3" d="M138.767 42.016h-27.163a2.17 2.17 0 0 0-2.186 2.18 2.17 2.17 0 0 0 2.186 2.179h27.163a2.17 2.17 0 0 0 2.185-2.18 2.17 2.17 0 0 0-2.185-2.18zM138.767 59.733h-27.163a2.17 2.17 0 0 0-2.186 2.179 2.17 2.17 0 0 0 2.186 2.18h27.163a2.17 2.17 0 0 0 2.185-2.18 2.17 2.17 0 0 0-2.185-2.18zM138.767 77.48h-27.163a2.17 2.17 0 0 0-2.186 2.18 2.17 2.17 0 0 0 2.186 2.18h27.163a2.17 2.17 0 0 0 2.185-2.18 2.17 2.17 0 0 0-2.185-2.18z"/>
            <path d="M126.528 110.92v-5.2c.936.219 1.842.624 2.778 1.184.281.156.531.25.812.25.843 0 1.53-.655 1.53-1.495 0-.654-.375-1.059-.812-1.308-1.249-.778-2.591-1.308-4.215-1.495v-.591c0-.654-.5-1.152-1.155-1.152-.656 0-1.186.529-1.186 1.152v.56c-3.404.28-5.683 2.273-5.683 5.169 0 3.051 1.842 4.546 5.808 5.573v5.356c-1.5-.28-2.748-.903-4.028-1.806a1.514 1.514 0 0 0-.906-.312c-.842 0-1.498.654-1.498 1.495 0 .56.28.996.718 1.308 1.655 1.152 3.528 1.899 5.557 2.117v1.681c0 .654.531 1.152 1.187 1.152a1.15 1.15 0 0 0 1.155-1.152v-1.619c3.434-.311 5.776-2.304 5.776-5.262.031-2.927-1.717-4.577-5.838-5.604zm-2.155-.59c-2.092-.686-2.591-1.37-2.591-2.523 0-1.183.874-2.117 2.591-2.273v4.795zm2.155 8.686v-4.92c2.091.654 2.685 1.37 2.685 2.585 0 1.276-.968 2.148-2.685 2.335z"/>
        </g>
    </g>
</svg>
