<svg xmlns="http://www.w3.org/2000/svg" xmlns:xlink="http://www.w3.org/1999/xlink" width="92" height="129" viewBox="0 0 92 129">
    <defs>
        <path id="a" d="M0 0h119v135H0z"/>
    </defs>
    <g fill="none" fill-rule="evenodd" transform="translate(-27)">
        <mask id="b" fill="#fff">
            <use xlink:href="#a"/>
        </mask>
        <g mask="url(#b)" opacity=".028">
            <path stroke="#000" stroke-width="9" d="M110.49 68.954c2.399-1.263 6.696-9.321 7.422-16.129 1.886-.155 4.859-2.002 5.73-9.298.47-3.917-1.397-6.121-2.533-6.814 3.068-9.269 9.441-37.943-11.788-40.906-2.185-3.854-7.78-5.805-15.05-5.805-29.087.538-32.596 22.062-26.22 46.711-1.133.693-2.999 2.897-2.532 6.814.874 7.296 3.843 9.143 5.73 9.298.722 6.804 5.19 14.866 7.595 16.13 0 4.86.18 8.572-.3 13.891C72.79 98.388 33.955 94.026 32.16 124H157c-1.79-29.974-40.458-25.612-46.214-41.154-.48-5.319-.295-9.031-.295-13.892z"/>
        </g>
    </g>
</svg>
